Coordinates
version=1
nRows=19
nColumns=36
inDegrees=yes

Units are S.I. units (second, meters, Newtons, ...)
If the header above contains a line with 'inDegrees', this indicates whether rotational values are in degrees (yes) or radians (no).

endheader
time	pelvis_tilt	pelvis_list	pelvis_rotation	pelvis_tx	pelvis_ty	pelvis_tz	hip_flexion_r	hip_adduction_r	hip_rotation_r	knee_angle_r	knee_angle_r_beta	ankle_angle_r	subtalar_angle_r	mtp_angle_r	hip_flexion_l	hip_adduction_l	hip_rotation_l	knee_angle_l	knee_angle_l_beta	ankle_angle_l	subtalar_angle_l	mtp_angle_l	lumbar_extension	lumbar_bending	lumbar_rotation	arm_flex_r	arm_add_r	arm_rot_r	elbow_flex_r	pro_sup_r	arm_flex_l	arm_add_l	arm_rot_l	elbow_flex_l	pro_sup_l
      0.00000000	      0.48474858	     -0.98070912	      0.97000989	      0.32282790	      0.94716815	     -0.09388427	     -3.61039506	     -0.86092640	     -4.37433596	      3.92708240	      0.06854052	     -3.72977602	    -23.39620178	     -5.27275577	     -2.16583020	     -2.70496421	      2.97632553	      6.97309808	      0.12170352	      3.52580101	    -12.26149584	     -5.27275577	     -4.68130687	      0.60293819	      1.82028498	      0.00385954	     -8.64978392	    -17.60782718	     89.45422121	     86.39078014	      1.25060283	     -4.37350220	     -9.23484881	     89.26428426	     89.52984198
      0.01666670	     -1.10886857	     -0.70096567	      1.07857200	      0.32395787	      0.94895789	     -0.09432433	     -1.76311550	     -0.84499894	     -4.51874546	      4.01506786	      0.07007615	     -1.18710567	    -20.60855562	     -5.57520330	     -0.43238419	     -1.92358700	      3.63854577	      6.61517082	      0.11545651	      3.30796566	    -11.05079380	     -5.57520330	     -2.01132098	      0.55822482	      1.47030829	     -1.08578871	     -7.89995102	    -23.50897439	     89.10830782	     84.07269440	      0.33363885	     -4.25792042	    -11.96738616	     87.65723917	     86.80452760
      0.03333330	     -1.32935800	     -0.04206100	      0.87787126	      0.32388328	      0.94595017	     -0.09374091	     -1.80298217	     -1.56890939	     -5.52735106	      3.37543695	      0.05891249	     -0.23401294	    -19.30887042	     -5.73619399	     -0.42843572	     -1.20070512	      3.29652702	      6.22973763	      0.10872943	      3.20671117	    -10.36059804	     -5.73619399	     -1.69967249	     -0.39216756	      2.46862033	     -1.65881459	     -7.63450774	    -26.30193902	     89.03130186	     83.33281416	      1.52384977	     -5.13417204	    -10.77777228	     86.41986654	     85.37227230
      0.05000000	     -0.76302260	      0.39613301	      0.95755925	      0.32346715	      0.94713122	     -0.09340501	     -2.56942643	     -2.08671273	     -5.73395726	      3.03418300	      0.05295648	      0.16461717	    -19.23237534	     -5.84100105	     -1.59254072	     -0.68127873	      3.59580429	      5.28712479	      0.09227774	      2.60422267	    -10.77912296	     -5.84100105	     -2.36549329	     -1.05678705	      2.81887123	     -2.08854612	     -7.45563878	    -28.08687709	     88.70300848	     82.20436752	      2.33431788	     -5.64141859	    -10.54332273	     86.41959117	     84.35189339
      0.06666670	     -0.32842497	      0.60068385	      0.98067534	      0.32350211	      0.94836913	     -0.09337788	     -3.18116546	     -2.29809069	     -6.12853886	      2.80932675	      0.04903200	      0.80280533	    -18.62532497	     -6.44718797	     -2.44643069	     -0.41758626	      4.03928338	      4.58391683	      0.08000444	      2.07258182	    -11.18344751	     -6.44718797	     -2.93364088	     -1.31784614	      3.23805878	     -2.54253005	     -7.30331629	    -29.74087654	     89.65983463	     75.62423819	      2.96006463	     -6.43473333	    -10.07366947	     86.97875893	     78.30324433
      0.08333330	      0.22464017	      0.67977951	      1.03529624	      0.32300656	      0.95156468	     -0.09298732	     -3.86130708	     -2.32158557	     -6.22391629	      2.54937573	      0.04449500	      0.58195935	    -18.81884358	     -6.53577913	     -3.27735722	     -0.36910854	      4.19507578	      4.12096589	      0.07192442	      1.80513638	    -11.14774247	     -6.53577913	     -3.47004947	     -1.54080267	      3.39877289	     -2.41253939	     -6.99317692	    -31.39019942	     89.58870423	     74.53341840	      3.22915097	     -6.96297523	    -10.45009576	     87.11379401	     77.72753168
      0.10000000	      0.58650517	      0.73199040	      1.04727732	      0.32283094	      0.95456894	     -0.09288786	     -4.31730738	     -2.33411572	     -6.09516576	      2.27686034	      0.03973871	      0.33212196	    -18.94582091	     -6.76922777	     -3.82370522	     -0.33855499	      4.36699177	      3.80801725	      0.06646244	      1.44719783	    -11.37720886	     -6.76922777	     -3.87989226	     -1.64878696	      4.26325937	     -2.67628811	     -6.67234415	    -33.63332903	     89.91560409	     71.97748439	      3.72404126	     -7.19593452	    -10.20736553	     86.71751693	     78.08982873
      0.11666670	      1.00460070	      0.74290903	      1.11452476	      0.32225014	      0.95411302	     -0.09265805	     -4.80452906	     -2.31041045	     -6.09507015	      2.04812749	      0.03574657	      0.33772757	    -18.67244721	     -7.23364481	     -4.36916298	     -0.39966816	      4.59932435	      3.65355988	      0.06376665	      1.25743609	    -11.32347335	     -7.23364481	     -4.39363689	     -1.72289908	      4.17229981	     -2.27857150	     -6.49812094	    -34.81554321	     89.88460075	     69.74751381	      3.85277713	     -7.49723538	    -10.85298663	     86.67373875	     79.39896092
      0.13333330	      1.45524237	      0.71862829	      1.16904770	      0.32206889	      0.95453410	     -0.09271454	     -5.36142352	     -2.22864751	     -6.20932544	      1.86808134	      0.03260417	      0.28737740	    -18.41999100	     -7.29229155	     -4.91129377	     -0.49357239	      4.77434544	      3.57867001	      0.06245957	      1.16820571	    -11.19764097	     -7.29229155	     -4.93828496	     -1.68758000	      4.20927114	     -1.95117175	     -6.38676047	    -35.71020752	     89.80100316	     68.37894963	      3.80704331	     -7.52213497	    -11.45604540	     86.60727498	     77.07635916
      0.15000000	      1.75016849	      0.71026973	      1.19741296	      0.32156586	      0.95423601	     -0.09260263	     -5.69043568	     -2.21463679	     -6.06275492	      1.78689608	      0.03118722	     -0.18830759	    -19.01888033	     -7.33496043	     -5.23459083	     -0.53451744	      5.09196851	      3.57881986	      0.06246219	      0.81788466	    -11.66018216	     -7.33496043	     -5.38221209	     -1.62284225	      4.28520326	     -1.76099551	     -6.15520935	    -36.90762162	     89.96891814	     67.44119618	      3.90852408	     -7.56607021	    -11.74213217	     86.46301501	     75.89462300
      0.16666670	      2.24864259	      0.68431347	      1.24675165	      0.32140812	      0.95502066	     -0.09273125	     -6.27607134	     -2.15714536	     -6.33679583	      1.74710094	      0.03049266	     -0.14054162	    -18.66925693	     -7.35751914	     -5.80291042	     -0.60316747	      5.27398361	      3.55121783	      0.06198044	      0.68527133	    -11.74432893	     -7.35751914	     -6.00601973	     -1.52926799	      4.20609925	     -1.49728157	     -6.06952044	    -37.85610443	     90.08559384	     66.70664612	      3.85281627	     -7.42392488	    -12.40164734	     86.60733358	     74.69192970
      0.18333330	      2.52757589	      0.65685109	      1.23878067	      0.32092198	      0.95475533	     -0.09261585	     -6.57804486	     -2.10349109	     -5.97244443	      1.73922410	      0.03035519	     -0.63904332	    -19.50770962	     -7.43786163	     -6.15329469	     -0.64940474	      5.42974050	      3.42256699	      0.05973506	      0.41874197	    -12.09233743	     -7.43786163	     -6.41286328	     -1.45830800	      4.34198714	     -1.49189611	     -5.89632062	    -39.07556614	     90.51414695	     64.78137417	      3.86857753	     -7.19724916	    -12.72791919	     86.87870517	     71.64967715
      0.20000000	      2.80300327	      0.62735201	      1.20463531	      0.32081053	      0.95244059	     -0.09283488	     -6.87155928	     -2.05086744	     -5.89936322	      1.78336693	      0.03112562	     -0.69401796	    -19.78071999	     -7.45194670	     -6.53663885	     -0.72809764	      5.56646031	      3.30581214	      0.05769731	      0.28931038	    -12.30827305	     -7.45194670	     -6.83575417	     -1.40465367	      4.31167391	     -1.29153193	     -5.76343013	    -39.73007001	     91.18324471	     64.46834515	      3.90187427	     -6.97247710	    -13.45807837	     87.42660003	     71.76738869
      0.21666670	      3.05574362	      0.60926634	      1.17566529	      0.32052516	      0.95241690	     -0.09274663	     -7.17645197	     -1.98082584	     -5.80846570	      1.77059867	      0.03090278	     -0.41742779	    -19.50461250	     -7.46225657	     -6.87321998	     -0.81931443	      5.63671031	      3.15863148	      0.05512852	      0.35434857	    -12.01180340	     -7.46225657	     -7.20089584	     -1.39790807	      4.27478695	     -1.11997479	     -5.62042985	    -40.38591954	     91.66927724	     63.97011382	      4.04233444	     -6.97732557	    -14.01305900	     87.98016064	     70.79721947
      0.23333330	      3.04857181	      0.62936949	      1.23480308	      0.32059601	      0.95264812	     -0.09290305	     -7.18171388	     -1.96467972	     -5.29655376	      1.73105745	      0.03021265	     -0.37364389	    -19.66200382	     -7.47675673	     -6.90773764	     -0.86535458	      6.07120161	      3.03211219	      0.05292034	     -0.01988361	    -12.60428111	     -7.47675673	     -7.21933404	     -1.45391582	      4.19709912	     -1.08204763	     -5.41039632	    -41.33053834	     92.11802534	     63.39275099	      4.14838720	     -7.00248220	    -14.49214981	     88.37568489	     70.45788095
      0.25000000	      3.09921895	      0.68059371	      1.26785182	      0.32038359	      0.95236257	     -0.09277759	     -7.25621649	     -1.99403277	     -4.86564267	      1.68804094	      0.02946187	     -0.16287742	    -19.35967940	     -7.48133582	     -7.01360134	     -0.86964935	      6.31941973	      2.88558254	      0.05036292	     -0.11100480	    -12.57313041	     -7.48133582	     -7.29072315	     -1.56493081	      4.08607057	     -1.01976378	     -5.18186557	    -42.29747874	     92.34454632	     63.00810064	      4.39613068	     -7.12467447	    -14.92518949	     88.43935464	     70.19703733
      0.26666670	      3.24884464	      0.68037654	      1.29762784	      0.32059813	      0.95018108	     -0.09298838	     -7.41460381	     -1.97424650	     -4.71079935	      1.67202757	      0.02918239	      0.23294043	    -18.83350299	     -7.48544415	     -7.23670390	     -0.92076862	      6.38946825	      2.72653139	      0.04758695	      0.02817648	    -12.25455742	     -7.48544415	     -7.51715345	     -1.59545522	      4.00534384	     -0.89156860	     -4.96615913	    -43.19739583	     92.60416456	     62.55260251	      4.51270343	     -7.33107893	    -15.61416411	     88.80743719	     69.00688489
      0.28333330	      3.22122402	      0.70463218	      1.31671317	      0.31627625	      0.95004945	     -0.09735053	     -7.31707470	     -2.14445840	     -4.54654352	      1.72505157	      0.03010783	      0.22186628	    -18.84284842	     -7.48546975	     -7.17040726	     -0.84186032	      6.47030256	      2.65030550	      0.04625656	      0.06593735	    -12.29269266	     -7.48546975	     -7.54474676	     -1.53519487	      3.82174801	     -0.85516120	     -5.22963125	    -43.48271667	     92.61853444	     62.53119901	      4.77970834	     -7.58991350	    -15.82622919	     88.82036824	     69.00743227
      0.30000000	      3.20562533	      0.76529523	      1.31399803	      0.31636238	      0.95054107	     -0.09736175	     -7.16250587	     -2.33588930	     -4.14651014	      1.89863215	      0.03313738	     -0.14837837	    -19.74518901	     -7.48838574	     -7.12219167	     -0.69261745	      6.94840170	      2.53678909	      0.04427532	     -0.28081769	    -13.20619050	     -7.48838574	     -7.68850094	     -1.57128417	      3.99225869	     -0.58700719	     -4.82978396	    -45.85306920	     92.72737429	     61.84144330	      5.17573036	     -7.48285366	    -17.06311695	     88.62776937	     68.27074833
